<svg width="28" height="28" viewBox="0 0 28 28" fill="none" xmlns="http://www.w3.org/2000/svg">
<rect width="28" height="28" rx="14" fill="#508B26" fill-opacity="0.2"/>
<g clip-path="url(#clip0_3149_5028)">
<path fill-rule="evenodd" clip-rule="evenodd" d="M16.9999 8.80081C15.8112 8.11492 14.4232 7.85729 13.0675 8.07088C11.7118 8.28447 10.4704 8.95636 9.55009 9.97451C8.62983 10.9927 8.08642 12.2955 8.0105 13.6658C7.93457 15.0362 8.33071 16.3911 9.13286 17.5047C9.93501 18.6182 11.0947 19.4232 12.4185 19.7852C13.7423 20.1473 15.1502 20.0446 16.4074 19.4942C17.6646 18.9438 18.6952 17.9791 19.3272 16.7609C19.9592 15.5427 20.1545 14.1446 19.8805 12.7998C19.807 12.439 20.0399 12.087 20.4006 12.0135C20.7614 11.9399 21.1135 12.1728 21.187 12.5336C21.5219 14.1772 21.2832 15.886 20.5107 17.3749C19.7383 18.8638 18.4787 20.043 16.9421 20.7156C15.4055 21.3883 13.6847 21.5138 12.0667 21.0713C10.4488 20.6288 9.03139 19.645 8.05099 18.284C7.07058 16.9229 6.58641 15.2669 6.6792 13.5921C6.772 11.9173 7.43616 10.3249 8.56093 9.08045C9.68569 7.83605 11.2031 7.01484 12.86 6.75379C14.517 6.49274 16.2134 6.80762 17.6663 7.64593C17.9852 7.82994 18.0945 8.23763 17.9105 8.55654C17.7265 8.87546 17.3188 8.98482 16.9999 8.80081ZM21.1378 8.1953C21.3982 8.45565 21.3982 8.87776 21.1378 9.13811L14.4711 15.8048C14.2108 16.0651 13.7887 16.0651 13.5283 15.8048L11.5283 13.8048C11.268 13.5444 11.268 13.1223 11.5283 12.862C11.7887 12.6016 12.2108 12.6016 12.4711 12.862L13.9997 14.3906L20.195 8.1953C20.4554 7.93495 20.8775 7.93495 21.1378 8.1953Z" fill="#508B26"/>
</g>
<defs>
<clipPath id="clip0_3149_5028">
<rect width="16" height="16" fill="white" transform="translate(6 6)"/>
</clipPath>
</defs>
</svg>
